<svg version="1.1" id="Layer_1" xmlns="http://www.w3.org/2000/svg" xmlns:xlink="http://www.w3.org/1999/xlink" x="0px" y="0px"
	 width="100%" viewBox="0 0 2000 555" enable-background="new 0 0 2000 555" xml:space="preserve">
<path fill="#1C0000" opacity="1.000000" stroke="none" 
	d="
M0.999998,516.000000 
	C1.000000,357.967285 1.000000,199.934540 1.358086,41.376919 
	C2.075235,40.527985 2.667011,40.259731 2.759987,39.871899 
	C7.464876,20.246239 19.511358,7.892783 39.118877,2.912819 
	C39.860050,2.724574 40.378017,1.657528 41.000000,1.000000 
	C680.366028,1.000000 1319.732056,1.000000 1959.624756,1.360857 
	C1961.285889,2.256866 1962.369873,2.985375 1963.562866,3.298003 
	C1979.555298,7.489213 1990.948853,16.832315 1996.842163,32.546432 
	C1997.939575,35.472527 1999.599609,38.187561 2001.000000,40.999992 
	C2001.000000,199.032730 2001.000000,357.065460 2000.641846,515.623108 
	C1999.924683,516.471924 1999.332397,516.739990 1999.239502,517.127686 
	C1994.535889,536.754639 1982.487915,549.106445 1962.880859,554.087036 
	C1962.139771,554.275269 1961.621826,555.342407 1961.000000,556.000000 
	C1321.633911,556.000000 682.267883,556.000000 42.375267,555.639160 
	C41.199211,554.850159 40.603157,554.193176 39.892387,554.027100 
	C20.475889,549.490723 8.212738,537.607056 2.984364,518.371338 
	C2.738783,517.467896 1.680039,516.785400 0.999998,516.000000 
M1040.160156,311.199280 
	C1038.228882,302.852692 1033.281494,298.238678 1026.201538,298.181152 
	C1019.097778,298.123444 1014.211731,302.590790 1011.972351,311.795410 
	C1012.201294,315.330017 1010.328979,316.058624 1007.093018,316.278870 
	C1002.093872,316.619171 996.620483,314.250092 991.958435,318.303833 
	C995.057373,323.386475 1000.082031,319.492493 1004.074463,321.378448 
	C1003.249207,325.147644 1001.347412,328.108032 997.357483,328.935242 
	C993.426697,329.750244 989.742615,329.125244 987.131226,325.500946 
	C983.461853,320.408386 984.106140,309.942902 988.437744,305.440704 
	C992.496338,301.222260 999.937012,301.924957 1001.616272,307.304565 
	C1002.794983,311.080566 1004.865356,310.963226 1007.647339,311.413696 
	C1007.816711,309.421234 1008.570312,307.540100 1007.985413,306.280365 
	C1004.676270,299.152435 994.248291,296.196503 987.440308,300.216614 
	C977.584595,306.036407 976.256104,323.551086 985.301392,330.520142 
	C990.134460,334.243866 995.707153,335.059418 1001.220947,332.187683 
	C1006.152222,329.619324 1009.674561,325.855194 1009.208557,319.601013 
	C1009.146667,318.771149 1010.379883,317.844788 1011.246094,317.705017 
	C1011.555237,319.141907 1011.826050,320.588318 1012.179993,322.014069 
	C1013.923523,329.037750 1019.677795,333.873291 1026.192383,333.816895 
	C1032.904419,333.758789 1038.331543,329.086914 1039.994385,321.917847 
	C1040.366333,320.313934 1040.690063,318.698822 1041.886230,317.328979 
	C1041.886230,322.736267 1041.886230,328.143555 1041.886230,334.345001 
	C1050.884399,332.607269 1059.172241,335.890961 1067.970459,331.885101 
	C1061.245483,326.683807 1054.083008,330.789276 1048.135254,328.640198 
	C1048.135254,325.338684 1048.135254,322.244049 1048.135254,319.349945 
	C1053.519165,317.341888 1059.685425,321.491699 1065.605347,315.451569 
	C1061.888550,314.889496 1059.433350,314.346771 1056.953613,314.187744 
	C1054.024780,313.999908 1051.074707,314.143616 1048.064697,314.143616 
	C1048.064697,310.820007 1048.064697,308.064575 1048.064697,305.444427 
	C1054.260010,303.070740 1061.351807,307.645752 1068.192261,301.912384 
	C1058.916016,298.669647 1050.653198,300.857605 1042.143799,300.058777 
	C1042.143799,302.680573 1042.276489,304.497864 1042.114746,306.288544 
	C1041.825684,309.488159 1041.358887,312.671722 1040.444824,315.512207 
	C1040.284668,315.377533 1040.124390,315.242828 1040.145264,314.433075 
	C1040.128174,313.613434 1040.111084,312.793823 1040.160156,311.199280 
M1044.791260,253.629395 
	C1044.551758,253.798080 1044.312256,253.966766 1044.072754,254.135498 
	C1044.372925,254.447189 1044.673096,254.758881 1045.093262,255.851379 
	C1045.413086,257.298187 1045.693970,258.754883 1046.059204,260.190125 
	C1047.869751,267.306427 1053.535156,271.975372 1060.131592,271.815552 
	C1067.010742,271.648865 1072.566406,266.593048 1073.968018,259.267151 
	C1074.243774,257.826477 1074.648682,256.410583 1075.500610,254.831375 
	C1075.345581,254.534286 1075.190552,254.237183 1075.036621,254.006241 
	C1075.036621,254.006241 1075.076294,253.953262 1074.459961,253.382172 
	C1074.300049,251.929535 1074.176270,250.471863 1073.974365,249.025085 
	C1072.877563,241.164490 1065.420532,235.129196 1058.218506,236.254059 
	C1050.081543,237.524948 1044.513916,245.196457 1045.561279,253.507812 
	C1045.412842,253.630692 1045.264282,253.753586 1044.791260,253.629395 
M886.624207,238.496246 
	C885.767456,236.987244 884.910706,235.478226 883.738586,233.413788 
	C882.442078,234.846619 880.744751,235.951065 880.185242,237.473663 
	C877.683167,244.282593 875.525391,251.217514 873.198059,258.091644 
	C872.516479,260.104828 871.685913,262.067596 870.561157,264.997711 
	C867.317566,255.733200 864.554932,247.591339 861.584717,239.525894 
	C860.790466,237.369064 859.362183,235.445740 857.783020,232.626022 
	C856.373718,235.368088 854.850159,236.947525 855.169861,237.922729 
	C858.744080,248.825989 862.493286,259.676910 866.510193,270.424286 
	C867.068909,271.919342 869.323303,272.780640 870.407532,273.632660 
	C871.713440,272.557465 873.882324,271.665985 874.422485,270.181732 
	C877.888977,260.656555 880.939209,250.980576 884.309082,241.418610 
	C884.680176,240.365662 886.210999,239.721420 888.070129,239.400620 
	C884.244873,248.687927 885.573364,251.967407 894.803894,256.012787 
	C895.713501,256.411407 896.919861,256.550781 897.487793,257.229431 
	C898.940613,258.965668 900.883545,260.849854 901.112610,262.848755 
	C901.256531,264.105103 898.552612,266.942413 897.316040,266.837402 
	C894.850647,266.628052 891.174866,265.442871 890.420532,263.644897 
	C889.063232,260.409729 887.341370,259.828979 882.687683,259.932098 
	C884.721008,263.440613 885.753967,266.344818 887.708801,268.350525 
	C891.230408,271.963776 895.807129,272.776398 900.563904,270.912018 
	C904.453918,269.387360 906.713501,266.357574 906.782288,262.150604 
	C906.863708,257.167969 903.778809,254.342438 899.483215,252.542679 
	C897.504822,251.713791 895.225159,251.201218 893.685303,249.855164 
	C892.437927,248.764755 891.290222,246.491486 891.567078,245.019058 
	C891.858215,243.470779 893.751892,241.370483 895.209595,241.132812 
	C896.694275,240.890762 898.648926,242.426773 900.126343,243.543427 
	C901.734619,244.758972 903.030640,246.387650 904.994263,248.373749 
	C906.866211,242.839844 904.725159,240.238922 901.597351,238.148132 
	C897.969055,235.722733 894.250366,235.520203 890.427002,237.875259 
	C889.460327,238.470749 888.220520,238.622879 886.624207,238.496246 
M1132.074219,330.762177 
	C1132.056152,321.596863 1132.135864,312.429657 1131.957031,303.267487 
	C1131.907227,300.717621 1131.092163,298.182709 1130.455811,294.696869 
	C1123.739746,300.747528 1129.068726,307.612000 1126.444214,312.860779 
	C1122.283203,312.860779 1118.208252,312.860779 1114.430908,312.860779 
	C1112.428833,307.180908 1116.640015,300.679260 1110.096436,294.812286 
	C1109.454590,298.193146 1108.682129,300.484253 1108.642456,302.787964 
	C1108.493286,311.451233 1108.477051,320.120667 1108.650024,328.783051 
	C1108.699829,331.280792 1109.552002,333.762512 1110.237427,337.284027 
	C1116.915039,330.779968 1111.996338,323.661469 1114.570923,317.972992 
	C1118.590698,317.972992 1122.550415,317.972992 1126.328979,317.972992 
	C1128.927612,323.844513 1124.005371,330.821655 1129.492188,336.510345 
	C1130.504883,335.045197 1131.239258,333.982758 1132.615112,332.895325 
	C1132.460815,332.481262 1132.306396,332.067230 1132.074219,330.762177 
M934.935913,248.929428 
	C934.963989,251.917038 934.828064,254.916977 935.051331,257.889923 
	C935.688965,266.381104 943.875061,272.982025 952.016907,271.703400 
	C961.055603,270.283875 966.341431,262.841522 964.307678,254.398132 
	C951.265259,253.540970 951.265259,253.540970 946.046204,257.702179 
	C951.251831,258.372498 955.183228,258.878723 959.379700,259.419098 
	C958.588806,264.041504 956.047363,266.594574 951.521301,267.133240 
	C946.548706,267.724945 943.100769,265.472626 941.252808,261.013672 
	C939.081604,255.774521 939.751587,250.461227 942.323975,245.600418 
	C945.690918,239.238190 953.705322,239.108215 957.264526,245.018356 
	C958.414185,246.927414 960.083679,248.523407 961.515381,250.262619 
	C961.971741,250.011887 962.428040,249.761154 962.884338,249.510422 
	C962.996643,247.708389 963.907471,245.239929 963.067078,244.232834 
	C960.807922,241.525589 958.146545,238.673584 955.020386,237.267303 
	C947.867371,234.049515 940.494446,237.771423 936.574341,245.493408 
	C936.323120,245.988174 937.340759,250.046112 934.391418,246.928665 
	C934.223511,241.909836 931.401794,239.361771 926.621399,238.923752 
	C922.335205,238.530991 918.024658,238.217361 913.725769,238.228867 
	C911.507202,238.234802 909.290771,239.023788 906.175598,239.635147 
	C913.220520,246.083023 913.204834,249.919312 907.069031,255.798355 
	C912.207642,258.241699 911.500732,262.865326 911.644287,267.351349 
	C911.720276,269.725677 912.696533,272.071167 913.266357,274.429657 
	C914.131226,274.354431 914.996155,274.279175 915.861023,274.203918 
	C916.353394,269.125153 916.845825,264.046417 917.374817,258.589783 
	C922.542542,263.962341 927.310547,268.919281 932.754578,274.579010 
	C933.462158,271.390625 933.803711,269.851593 934.145325,268.312592 
	C934.562622,267.865356 934.979980,267.418152 935.397339,266.970947 
	C931.625061,264.175903 927.852783,261.380890 923.371460,258.060486 
	C929.268921,256.295258 933.811218,254.878860 934.935913,248.929428 
M853.439453,333.523346 
	C854.077393,334.436890 854.715393,335.350403 856.375488,337.727570 
	C857.084229,334.057068 857.835876,331.823700 857.890076,329.573486 
	C858.054749,322.741272 857.949646,315.902557 857.949646,309.066406 
	C858.277466,309.001587 858.605225,308.936798 858.933044,308.871979 
	C864.103149,318.066772 869.273254,327.261536 874.915833,337.296600 
	C876.380493,334.600983 877.967834,333.017029 877.998413,331.403534 
	C878.181274,321.764648 878.095703,312.116943 877.882751,302.477020 
	C877.832703,300.213501 876.945251,297.968475 876.443054,295.714935 
	C875.657288,295.778442 874.871521,295.841949 874.085754,295.905457 
	C873.740784,298.178253 873.141113,300.446289 873.098450,302.724731 
	C872.967834,309.709137 873.050903,316.697571 873.050903,323.684418 
	C872.756775,323.734802 872.462646,323.785187 872.168518,323.835602 
	C866.880249,314.415894 861.591980,304.996155 855.921204,294.895172 
	C854.561157,297.321442 852.968872,298.855743 852.947266,300.411835 
	C852.804260,310.709900 852.998413,321.012695 852.533875,331.900177 
	C851.095337,330.911896 848.892090,330.234741 848.342651,328.884644 
	C844.855713,320.315704 841.768799,311.584839 838.470215,302.937775 
	C837.511536,300.424805 836.291687,298.011475 835.191528,295.552460 
	C834.604126,295.618347 834.016785,295.684265 833.429382,295.750153 
	C832.341003,298.383545 831.187927,300.992340 830.176453,303.654938 
	C827.241638,311.380615 824.378540,319.133514 821.443359,326.859039 
	C821.108704,327.739868 820.496094,328.515076 819.502869,330.207336 
	C819.796753,319.590057 819.796753,319.590057 814.856689,314.311981 
	C820.951782,308.610992 816.150330,299.644073 809.041809,299.498291 
	C805.106995,299.417633 801.148865,299.782715 797.224365,300.177307 
	C795.146790,300.386230 793.118835,301.088165 791.068420,301.567505 
	C796.218628,305.695892 795.785522,309.979706 794.450500,314.517975 
	C794.272644,315.122467 794.073425,315.849640 794.246033,316.408173 
	C795.849060,321.595612 796.490295,326.553894 791.276794,330.173248 
	C795.143066,335.989563 801.000488,331.935760 805.744080,333.375519 
	C809.214172,334.428650 813.651489,332.294769 818.269409,331.472504 
	C818.895508,332.484406 820.043518,334.339752 822.091248,337.649170 
	C824.257141,332.789429 825.986084,328.909973 827.803955,324.831055 
	C830.382751,324.831055 833.101318,325.202393 835.675659,324.750885 
	C840.491760,323.906250 842.420593,326.195587 843.575073,330.438477 
	C844.168640,332.619904 845.784851,334.523071 846.938904,336.552002 
	C847.185669,335.867828 847.432495,335.183685 847.679260,334.499512 
	C849.456055,333.989319 851.232788,333.479126 853.439453,333.523346 
M1147.353760,300.158325 
	C1143.088379,300.158325 1138.822876,300.158325 1134.477783,300.158325 
	C1134.477783,311.722198 1134.477783,322.596130 1134.477783,334.141602 
	C1142.851318,332.762817 1151.114502,335.649811 1159.797607,332.064117 
	C1153.348022,326.259552 1146.053345,331.131714 1140.092041,328.512939 
	C1140.092041,325.389038 1140.092041,322.292542 1140.092041,319.412018 
	C1145.427734,317.083374 1151.695801,321.672699 1156.289551,316.756104 
	C1156.307617,316.148407 1156.325806,315.540710 1156.343872,314.932983 
	C1150.953491,314.529694 1145.562988,314.126404 1140.202881,313.725372 
	C1140.202881,310.738739 1140.202881,307.864624 1140.202881,305.377838 
	C1146.662720,303.408478 1153.228027,306.993652 1159.215576,303.351379 
	C1159.606323,303.113647 1161.212769,304.312683 1161.856934,305.148987 
	C1164.868408,309.059021 1164.072998,312.782318 1159.176147,317.884857 
	C1164.329834,320.368896 1163.421997,325.065674 1163.613892,329.509491 
	C1163.713623,331.816956 1164.591919,334.090790 1165.118530,336.379852 
	C1167.133301,335.195557 1168.263062,334.182678 1168.383545,333.061371 
	C1168.806763,329.121887 1168.882935,325.145142 1169.098511,321.034180 
	C1175.565063,324.675415 1177.883789,332.595093 1185.100220,335.451080 
	C1185.515503,333.251984 1185.806641,331.710449 1186.262573,329.296021 
	C1183.105957,326.625305 1179.607788,323.665558 1175.460083,320.156311 
	C1177.632568,319.473480 1178.691284,319.190857 1179.713745,318.810638 
	C1184.432495,317.056213 1186.806396,313.285156 1186.380249,308.351349 
	C1185.964600,303.539795 1183.039429,301.357666 1178.543213,300.885834 
	C1175.580933,300.574951 1172.607666,300.260071 1169.633911,300.192596 
	C1165.874390,300.107330 1161.453979,301.766937 1158.706909,301.225403 
	C1155.215454,300.537170 1151.744263,300.609497 1147.353760,300.158325 
M943.835693,327.467896 
	C943.835693,325.376434 943.835693,323.284973 943.835693,320.086090 
	C949.461975,325.903290 954.281616,330.886475 959.849609,336.643402 
	C960.499756,333.306488 960.800720,331.761902 961.101624,330.217316 
	C961.606873,329.685547 962.112122,329.153809 962.617432,328.622040 
	C958.764709,325.940582 954.912048,323.259155 950.551208,320.224030 
	C952.304504,319.464905 952.722229,319.232880 953.169250,319.098297 
	C959.110413,317.309937 961.623596,314.221039 961.432983,308.916840 
	C961.254333,303.945984 959.059998,302.199310 952.661865,300.563843 
	C944.727966,298.535736 936.871094,301.724548 928.824341,300.164948 
	C922.619324,298.962280 915.994568,299.925110 909.302795,299.925110 
	C909.302795,311.535461 909.302795,322.424103 909.302795,333.960876 
	C917.571228,333.091278 925.809814,335.284943 934.868835,332.124298 
	C927.937927,326.482269 920.942749,330.870819 914.787964,328.631256 
	C914.787964,325.509521 914.787964,322.319550 914.787964,319.363953 
	C920.214111,317.313049 926.359619,321.439667 931.208984,316.606781 
	C926.164062,311.540741 919.919983,315.836517 914.643799,313.559814 
	C914.643799,310.856659 914.643799,308.096832 914.643799,305.289215 
	C921.178223,303.449615 928.118835,306.992950 934.322998,303.230652 
	C934.671631,303.019196 936.248352,304.336121 936.900146,305.206360 
	C939.843445,309.135956 939.082947,312.698120 934.222656,317.927032 
	C939.390747,320.411591 938.400269,325.129852 938.620239,329.553741 
	C938.734741,331.857117 939.617859,334.122284 940.153748,336.404724 
	C940.881653,336.379242 941.609619,336.353760 942.337524,336.328308 
	C942.836914,333.672668 943.336304,331.016998 943.835693,327.467896 
M1017.912781,235.686798 
	C1017.333313,237.034958 1016.273743,238.375381 1016.251831,239.732529 
	C1016.104614,248.876678 1016.065552,258.026703 1016.255005,267.169342 
	C1016.304565,269.562775 1017.285767,271.936859 1017.839111,274.319824 
	C1018.570557,274.254578 1019.302002,274.189331 1020.033447,274.124084 
	C1023.339111,265.130341 1020.324585,255.513748 1021.310364,244.933167 
	C1027.315552,255.597733 1032.644653,265.061768 1038.462524,275.393982 
	C1039.884766,272.556793 1041.522339,270.779327 1041.557373,268.970856 
	C1041.740479,259.507538 1041.599731,250.034363 1041.375732,240.569244 
	C1041.321411,238.271805 1040.528687,235.991806 1040.075562,233.703796 
	C1039.278442,233.755020 1038.481201,233.806259 1037.683960,233.857498 
	C1037.309814,236.103638 1036.657227,238.344330 1036.613159,240.596924 
	C1036.473511,247.724838 1036.561523,254.857193 1036.561523,261.987823 
	C1036.141968,262.128326 1035.722412,262.268829 1035.302856,262.409302 
	C1031.388550,254.121872 1027.631226,245.753006 1023.410889,237.624390 
	C1022.677490,236.211685 1019.989075,235.813980 1017.912781,235.686798 
M906.430481,314.506805 
	C905.235352,308.393372 909.052368,301.537720 903.260132,295.932709 
	C902.092651,298.845764 901.656738,301.755096 901.604980,304.671234 
	C901.490540,311.120056 901.569458,317.572357 901.569458,325.428009 
	C895.510437,314.613220 890.179016,305.097168 884.847595,295.581116 
	C884.203979,295.642609 883.560303,295.704102 882.916626,295.765625 
	C882.337524,298.707153 881.342468,301.636963 881.258972,304.592529 
	C881.028503,312.746674 881.041870,320.915375 881.262695,329.070068 
	C881.328918,331.513580 882.394409,333.930054 883.002075,336.358917 
	C883.804016,336.276337 884.605957,336.193787 885.407898,336.111237 
	C885.750061,333.852783 886.345520,331.598999 886.387207,329.335022 
	C886.516235,322.333984 886.434326,315.329132 886.434326,307.163055 
	C892.305603,317.586884 897.639404,327.056580 903.287659,337.084564 
	C904.850830,334.611603 906.646790,333.052795 906.722229,331.414764 
	C906.965698,326.126495 906.576050,320.809113 906.430481,314.506805 
M1118.680908,256.819000 
	C1123.724976,254.904556 1125.783936,251.197372 1125.287109,245.911819 
	C1124.761963,240.322876 1120.568848,239.095123 1116.157715,238.565384 
	C1112.387085,238.112595 1108.537842,238.095230 1104.734375,238.219193 
	C1102.501831,238.291946 1100.290649,239.017410 1097.167358,239.624802 
	C1104.229126,246.087540 1104.207886,250.018829 1097.908813,255.866135 
	C1103.484009,258.062195 1102.392090,262.840027 1102.633423,267.270386 
	C1102.765137,269.688293 1103.668823,272.064209 1104.224243,274.459045 
	C1105.081421,274.395081 1105.938599,274.331116 1106.795776,274.267151 
	C1107.314941,269.192108 1107.833984,264.117065 1108.402710,258.557251 
	C1113.516602,263.916992 1118.260376,268.888947 1123.697510,274.587646 
	C1124.418091,271.503113 1124.773438,269.981506 1125.022461,268.915222 
	C1122.144775,265.882111 1119.417603,263.016907 1116.701416,260.141296 
	C1115.028442,258.370209 1115.334351,257.279144 1118.680908,256.819000 
M1203.207520,300.143951 
	C1198.283203,300.143951 1193.358887,300.143951 1188.143677,300.143951 
	C1188.143677,306.407928 1188.143677,311.887482 1188.143677,317.367035 
	C1188.143677,322.784088 1188.143677,328.201141 1188.143677,334.100128 
	C1196.939453,332.982788 1205.159912,335.489471 1213.961060,331.990692 
	C1207.280396,326.529846 1200.303833,330.793335 1194.174072,328.632629 
	C1194.174072,325.497162 1194.174072,322.288422 1194.174072,319.424225 
	C1199.529785,317.184570 1205.725220,321.702026 1210.472656,316.482910 
	C1205.382690,311.820312 1199.219238,315.578217 1194.113770,313.714844 
	C1194.113770,310.719849 1194.113770,307.962982 1194.113770,304.856049 
	C1197.663330,304.856049 1200.964844,304.961548 1204.256348,304.824646 
	C1207.198120,304.702271 1210.128784,304.312378 1213.064209,304.040558 
	C1213.073120,303.065002 1213.081909,302.089478 1213.090820,301.113922 
	C1210.099731,300.790588 1207.108521,300.467285 1203.207520,300.143951 
M1007.968445,255.242844 
	C1007.968323,256.074799 1008.002014,256.908386 1007.962524,257.738434 
	C1007.663879,264.014496 1005.239563,267.177734 1000.755371,267.167297 
	C996.117615,267.156494 993.929810,264.216949 993.842896,257.649384 
	C993.770203,252.159363 993.992676,246.660355 993.751831,241.179932 
	C993.640991,238.658081 992.734375,236.171204 992.188599,233.668457 
	C991.613831,233.696014 991.039001,233.723572 990.464233,233.751144 
	C989.653442,235.356384 988.149414,236.962189 988.150696,238.566803 
	C988.156433,245.865860 988.257080,253.196136 988.953308,260.454773 
	C989.681885,268.051056 994.627380,272.201233 1001.447266,271.822235 
	C1008.243774,271.444519 1012.682739,266.740265 1013.002808,259.301483 
	C1013.266968,253.160828 1013.461182,247.007629 1013.358826,240.865448 
	C1013.318665,238.454910 1012.387207,236.059219 1011.861694,233.656754 
	C1011.290466,233.647446 1010.719238,233.638123 1010.148010,233.628799 
	C1009.397827,235.362518 1008.095032,237.067139 1008.001892,238.835464 
	C1007.731018,243.977158 1007.944763,249.144363 1007.968445,255.242844 
M1082.381470,333.059723 
	C1086.665039,331.722656 1088.865601,328.918915 1089.076660,324.328857 
	C1089.303589,319.390381 1086.666016,316.682220 1082.547241,314.859161 
	C1080.279541,313.855408 1077.695068,313.201263 1075.889282,311.649445 
	C1074.688965,310.617950 1073.957886,308.165955 1074.233276,306.558167 
	C1074.470093,305.175751 1076.372803,303.179138 1077.643188,303.098480 
	C1079.271240,302.995117 1081.166016,304.322144 1082.647583,305.431183 
	C1084.260864,306.638702 1085.532349,308.302612 1087.563232,310.397034 
	C1088.055298,307.332245 1088.951050,305.013153 1088.407227,304.602905 
	C1085.238892,302.213196 1081.955688,299.253448 1078.281372,298.448242 
	C1074.121704,297.536682 1070.673584,300.596436 1069.213135,304.705261 
	C1067.852783,308.532440 1068.143311,312.442932 1071.829712,314.987000 
	C1074.249756,316.657135 1077.353271,317.382111 1079.649170,319.173218 
	C1081.489014,320.608582 1083.106201,322.858124 1083.740601,325.058197 
	C1084.006104,325.978851 1081.296509,328.966888 1080.249878,328.818939 
	C1077.607300,328.445282 1074.965820,327.097626 1072.661255,325.615601 
	C1070.926025,324.499725 1069.713257,322.571411 1067.664551,320.350677 
	C1066.010376,329.441986 1072.630127,334.742706 1082.381470,333.059723 
M1128.971313,263.569336 
	C1126.240479,266.852386 1128.462402,272.752747 1133.195068,274.785156 
	C1138.032227,276.862488 1143.324341,275.742798 1146.374512,271.996765 
	C1149.631836,267.996277 1149.069214,262.700195 1144.691040,257.028198 
	C1148.276489,254.186005 1149.068604,250.440094 1147.299561,246.383118 
	C1145.550171,242.371353 1141.834595,241.139740 1137.815918,241.228455 
	C1131.737549,241.362656 1128.998901,245.302658 1127.766846,250.493439 
	C1128.928101,251.806259 1129.933716,252.943146 1131.330444,254.522125 
	C1132.310181,252.444870 1132.771240,250.720795 1133.805420,249.471161 
	C1134.990479,248.039261 1136.712646,246.052429 1138.149414,246.094345 
	C1139.761353,246.141373 1142.306641,247.971695 1142.623169,249.423477 
	C1142.959473,250.965393 1141.347046,253.104416 1140.223022,254.732285 
	C1139.464478,255.830887 1138.077759,256.495697 1136.971924,257.354553 
	C1137.971313,258.320312 1138.837402,259.505157 1139.995728,260.209473 
	C1143.093384,262.092834 1143.888794,265.042267 1142.694458,267.931946 
	C1142.076904,269.426178 1139.573120,270.827057 1137.796021,271.003357 
	C1134.737671,271.306763 1133.202637,269.504791 1133.142578,266.072998 
	C1133.123657,264.989380 1130.642334,263.948853 1128.971313,263.569336 
M1085.726562,262.856049 
	C1088.000244,262.856049 1090.273926,262.856049 1092.547607,262.856049 
	C1092.836304,262.405121 1093.124878,261.954163 1093.413574,261.503235 
	C1092.453979,260.717743 1091.586792,259.460083 1090.514771,259.250610 
	C1088.615234,258.879517 1086.562256,258.941620 1084.630493,259.219116 
	C1083.428589,259.391785 1082.331299,260.293640 1081.187134,260.868256 
	C1082.406860,261.530792 1083.626709,262.193359 1085.726562,262.856049 
M972.853333,259.145172 
	C971.919617,259.747192 970.985901,260.349213 970.052246,260.951233 
	C970.954224,261.585419 971.809692,262.666779 972.767151,262.766296 
	C975.212463,263.020447 977.713867,262.958801 980.168640,262.745300 
	C980.807373,262.689728 981.816650,261.615112 981.818787,261.005554 
	C981.820984,260.396362 980.824768,259.326874 980.178772,259.256012 
	C978.060364,259.023621 975.902283,259.153473 972.853333,259.145172 
z"/>
<path fill="#000000" opacity="1.000000" stroke="none" 
	d="
M2001.000000,40.531334 
	C1999.599609,38.187561 1997.939575,35.472527 1996.842163,32.546432 
	C1990.948853,16.832315 1979.555298,7.489213 1963.562866,3.298003 
	C1962.369873,2.985375 1961.285889,2.256866 1960.075684,1.360857 
	C1973.592407,1.000000 1987.184814,1.000000 2001.000000,1.000000 
	C2001.000000,14.020048 2001.000000,27.041365 2001.000000,40.531334 
z"/>
<path fill="#000000" opacity="1.000000" stroke="none" 
	d="
M0.999998,516.468628 
	C1.680039,516.785400 2.738783,517.467896 2.984364,518.371338 
	C8.212738,537.607056 20.475889,549.490723 39.892387,554.027100 
	C40.603157,554.193176 41.199211,554.850159 41.924362,555.639160 
	C28.407578,556.000000 14.815155,556.000000 1.000000,556.000000 
	C1.000000,542.979980 1.000000,529.958618 0.999998,516.468628 
z"/>
<path fill="#000000" opacity="1.000000" stroke="none" 
	d="
M40.531342,1.000000 
	C40.378017,1.657528 39.860050,2.724574 39.118877,2.912819 
	C19.511358,7.892783 7.464876,20.246239 2.759987,39.871899 
	C2.667011,40.259731 2.075235,40.527985 1.358086,40.926014 
	C1.000000,27.740011 1.000000,14.480022 1.000000,1.000000 
	C14.020069,1.000000 27.041376,1.000000 40.531342,1.000000 
z"/>
<path fill="#000000" opacity="1.000000" stroke="none" 
	d="
M1961.468628,556.000000 
	C1961.621826,555.342407 1962.139771,554.275269 1962.880859,554.087036 
	C1982.487915,549.106445 1994.535889,536.754639 1999.239502,517.127686 
	C1999.332397,516.739990 1999.924683,516.471924 2000.641846,516.073975 
	C2001.000000,529.260010 2001.000000,542.519958 2001.000000,556.000000 
	C1987.979858,556.000000 1974.958618,556.000000 1961.468628,556.000000 
z"/>
<path fill="#EFEDED" opacity="1.000000" stroke="none" 
	d="
M853.009521,332.968933 
	C851.232788,333.479126 849.456055,333.989319 847.679260,334.499512 
	C847.432495,335.183685 847.185669,335.867828 846.938904,336.552002 
	C845.784851,334.523071 844.168640,332.619904 843.575073,330.438477 
	C842.420593,326.195587 840.491760,323.906250 835.675659,324.750885 
	C833.101318,325.202393 830.382751,324.831055 827.803955,324.831055 
	C825.986084,328.909973 824.257141,332.789429 822.091248,337.649170 
	C820.043518,334.339752 818.895508,332.484406 818.269409,331.472504 
	C813.651489,332.294769 809.214172,334.428650 805.744080,333.375519 
	C801.000488,331.935760 795.143066,335.989563 791.276794,330.173248 
	C796.490295,326.553894 795.849060,321.595612 794.246033,316.408173 
	C794.073425,315.849640 794.272644,315.122467 794.450500,314.517975 
	C795.785522,309.979706 796.218628,305.695892 791.068420,301.567505 
	C793.118835,301.088165 795.146790,300.386230 797.224365,300.177307 
	C801.148865,299.782715 805.106995,299.417633 809.041809,299.498291 
	C816.150330,299.644073 820.951782,308.610992 814.856689,314.311981 
	C819.796753,319.590057 819.796753,319.590057 819.502869,330.207336 
	C820.496094,328.515076 821.108704,327.739868 821.443359,326.859039 
	C824.378540,319.133514 827.241638,311.380615 830.176453,303.654938 
	C831.187927,300.992340 832.341003,298.383545 833.429382,295.750153 
	C834.016785,295.684265 834.604126,295.618347 835.191528,295.552460 
	C836.291687,298.011475 837.511536,300.424805 838.470215,302.937775 
	C841.768799,311.584839 844.855713,320.315704 848.342651,328.884644 
	C848.892090,330.234741 851.095337,330.911896 852.793823,331.882782 
	C853.039062,332.233246 853.024292,332.601074 853.009521,332.968933 
M806.381226,328.181824 
	C810.137939,327.921570 814.539673,328.407532 814.388733,322.686005 
	C814.267761,318.103729 810.288208,316.868286 800.740356,318.301727 
	C800.740356,321.489258 800.740356,324.690186 800.740356,328.182739 
	C802.528381,328.182739 804.002747,328.182739 806.381226,328.181824 
M812.114197,309.315155 
	C811.297546,304.622467 809.714417,304.045624 800.699036,305.264191 
	C800.699036,307.780365 800.699036,310.322540 800.699036,313.188904 
	C804.801941,312.563660 809.294067,314.984222 812.114197,309.315155 
M830.791687,315.277283 
	C830.263184,316.783661 829.734680,318.290009 829.127075,320.022034 
	C832.831726,320.022034 836.130249,320.022034 839.807373,320.022034 
	C838.051147,314.960999 836.385071,310.159546 834.516174,304.773621 
	C833.200806,308.379669 832.084167,311.440948 830.791687,315.277283 
M819.484192,330.002869 
	C819.449158,330.296173 819.414062,330.589508 819.378967,330.882782 
	C819.572510,330.754089 819.766052,330.625397 819.484192,330.002869 
z"/>
<path fill="#ECE9E9" opacity="1.000000" stroke="none" 
	d="
M1147.825195,300.158325 
	C1151.744263,300.609497 1155.215454,300.537170 1158.706909,301.225403 
	C1161.453979,301.766937 1165.874390,300.107330 1169.633911,300.192596 
	C1172.607666,300.260071 1175.580933,300.574951 1178.543213,300.885834 
	C1183.039429,301.357666 1185.964600,303.539795 1186.380249,308.351349 
	C1186.806396,313.285156 1184.432495,317.056213 1179.713745,318.810638 
	C1178.691284,319.190857 1177.632568,319.473480 1175.460083,320.156311 
	C1179.607788,323.665558 1183.105957,326.625305 1186.262573,329.296021 
	C1185.806641,331.710449 1185.515503,333.251984 1185.100220,335.451080 
	C1177.883789,332.595093 1175.565063,324.675415 1169.098511,321.034180 
	C1168.882935,325.145142 1168.806763,329.121887 1168.383545,333.061371 
	C1168.263062,334.182678 1167.133301,335.195557 1165.118530,336.379852 
	C1164.591919,334.090790 1163.713623,331.816956 1163.613892,329.509491 
	C1163.421997,325.065674 1164.329834,320.368896 1159.176147,317.884857 
	C1164.072998,312.782318 1164.868408,309.059021 1161.856934,305.148987 
	C1161.212769,304.312683 1159.606323,303.113647 1159.215576,303.351379 
	C1153.228027,306.993652 1146.662720,303.408478 1140.202881,305.377838 
	C1140.202881,307.864624 1140.202881,310.738739 1140.202881,313.725372 
	C1145.562988,314.126404 1150.953491,314.529694 1156.343872,314.932983 
	C1156.325806,315.540710 1156.307617,316.148407 1156.289551,316.756104 
	C1151.695801,321.672699 1145.427734,317.083374 1140.092041,319.412018 
	C1140.092041,322.292542 1140.092041,325.389038 1140.092041,328.512939 
	C1146.053345,331.131714 1153.348022,326.259552 1159.797607,332.064117 
	C1151.114502,335.649811 1142.851318,332.762817 1134.477783,334.141602 
	C1134.477783,322.596130 1134.477783,311.722198 1134.477783,300.158325 
	C1138.822876,300.158325 1143.088379,300.158325 1147.825195,300.158325 
M1176.883423,305.001740 
	C1174.302368,305.001740 1171.721313,305.001740 1169.155396,305.001740 
	C1169.155396,308.598724 1169.155396,311.805023 1169.155396,315.032715 
	C1171.447388,315.032715 1173.611816,315.546234 1175.343750,314.900146 
	C1177.417725,314.126465 1180.186401,312.661072 1180.669556,310.938599 
	C1181.100098,309.403137 1178.825684,307.109070 1176.883423,305.001740 
z"/>
<path fill="#EEEBEB" opacity="1.000000" stroke="none" 
	d="
M943.835693,327.914612 
	C943.336304,331.016998 942.836914,333.672668 942.337524,336.328308 
	C941.609619,336.353760 940.881653,336.379242 940.153748,336.404724 
	C939.617859,334.122284 938.734741,331.857117 938.620239,329.553741 
	C938.400269,325.129852 939.390747,320.411591 934.222656,317.927032 
	C939.082947,312.698120 939.843445,309.135956 936.900146,305.206360 
	C936.248352,304.336121 934.671631,303.019196 934.322998,303.230652 
	C928.118835,306.992950 921.178223,303.449615 914.643799,305.289215 
	C914.643799,308.096832 914.643799,310.856659 914.643799,313.559814 
	C919.919983,315.836517 926.164062,311.540741 931.208984,316.606781 
	C926.359619,321.439667 920.214111,317.313049 914.787964,319.363953 
	C914.787964,322.319550 914.787964,325.509521 914.787964,328.631256 
	C920.942749,330.870819 927.937927,326.482269 934.868835,332.124298 
	C925.809814,335.284943 917.571228,333.091278 909.302795,333.960876 
	C909.302795,322.424103 909.302795,311.535461 909.302795,299.925110 
	C915.994568,299.925110 922.619324,298.962280 928.824341,300.164948 
	C936.871094,301.724548 944.727966,298.535736 952.661865,300.563843 
	C959.059998,302.199310 961.254333,303.945984 961.432983,308.916840 
	C961.623596,314.221039 959.110413,317.309937 953.169250,319.098297 
	C952.722229,319.232880 952.304504,319.464905 950.551208,320.224030 
	C954.912048,323.259155 958.764709,325.940582 962.617432,328.622040 
	C962.112122,329.153809 961.606873,329.685547 961.101624,330.217316 
	C960.800720,331.761902 960.499756,333.306488 959.849609,336.643402 
	C954.281616,330.886475 949.461975,325.903290 943.835693,320.086090 
	C943.835693,323.284973 943.835693,325.376434 943.835693,327.914612 
M953.333252,314.205750 
	C956.327637,312.734894 957.310364,309.142120 955.461914,307.748779 
	C952.554077,305.556885 948.366516,305.062531 943.829895,303.552979 
	C943.829895,306.795441 943.829834,308.402008 943.829834,310.008575 
	C943.829834,311.616852 943.829895,313.225128 943.829895,315.348694 
	C947.087708,315.077972 949.836182,314.849579 953.333252,314.205750 
z"/>
<path fill="#F2F1F1" opacity="1.000000" stroke="none" 
	d="
M1018.058228,235.317139 
	C1019.989075,235.813980 1022.677490,236.211685 1023.410889,237.624390 
	C1027.631226,245.753006 1031.388550,254.121872 1035.302856,262.409302 
	C1035.722412,262.268829 1036.141968,262.128326 1036.561523,261.987823 
	C1036.561523,254.857193 1036.473511,247.724838 1036.613159,240.596924 
	C1036.657227,238.344330 1037.309814,236.103638 1037.683960,233.857498 
	C1038.481201,233.806259 1039.278442,233.755020 1040.075562,233.703796 
	C1040.528687,235.991806 1041.321411,238.271805 1041.375732,240.569244 
	C1041.599731,250.034363 1041.740479,259.507538 1041.557373,268.970856 
	C1041.522339,270.779327 1039.884766,272.556793 1038.462524,275.393982 
	C1032.644653,265.061768 1027.315552,255.597733 1021.310364,244.933167 
	C1020.324585,255.513748 1023.339111,265.130341 1020.033447,274.124084 
	C1019.302002,274.189331 1018.570557,274.254578 1017.839111,274.319824 
	C1017.285767,271.936859 1016.304565,269.562775 1016.255005,267.169342 
	C1016.065552,258.026703 1016.104614,248.876678 1016.251831,239.732529 
	C1016.273743,238.375381 1017.333313,237.034958 1018.058228,235.317139 
z"/>
<path fill="#F2F1F1" opacity="1.000000" stroke="none" 
	d="
M906.430481,315.004883 
	C906.576050,320.809113 906.965698,326.126495 906.722229,331.414764 
	C906.646790,333.052795 904.850830,334.611603 903.287659,337.084564 
	C897.639404,327.056580 892.305603,317.586884 886.434326,307.163055 
	C886.434326,315.329132 886.516235,322.333984 886.387207,329.335022 
	C886.345520,331.598999 885.750061,333.852783 885.407898,336.111237 
	C884.605957,336.193787 883.804016,336.276337 883.002075,336.358917 
	C882.394409,333.930054 881.328918,331.513580 881.262695,329.070068 
	C881.041870,320.915375 881.028503,312.746674 881.258972,304.592529 
	C881.342468,301.636963 882.337524,298.707153 882.916626,295.765625 
	C883.560303,295.704102 884.203979,295.642609 884.847595,295.581116 
	C890.179016,305.097168 895.510437,314.613220 901.569458,325.428009 
	C901.569458,317.572357 901.490540,311.120056 901.604980,304.671234 
	C901.656738,301.755096 902.092651,298.845764 903.260132,295.932709 
	C909.052368,301.537720 905.235352,308.393372 906.430481,315.004883 
z"/>
<path fill="#F0EEEE" opacity="1.000000" stroke="none" 
	d="
M1118.252563,256.895721 
	C1115.334351,257.279144 1115.028442,258.370209 1116.701416,260.141296 
	C1119.417603,263.016907 1122.144775,265.882111 1125.022461,268.915222 
	C1124.773438,269.981506 1124.418091,271.503113 1123.697510,274.587646 
	C1118.260376,268.888947 1113.516602,263.916992 1108.402710,258.557251 
	C1107.833984,264.117065 1107.314941,269.192108 1106.795776,274.267151 
	C1105.938599,274.331116 1105.081421,274.395081 1104.224243,274.459045 
	C1103.668823,272.064209 1102.765137,269.688293 1102.633423,267.270386 
	C1102.392090,262.840027 1103.484009,258.062195 1097.908813,255.866135 
	C1104.207886,250.018829 1104.229126,246.087540 1097.167358,239.624802 
	C1100.290649,239.017410 1102.501831,238.291946 1104.734375,238.219193 
	C1108.537842,238.095230 1112.387085,238.112595 1116.157715,238.565384 
	C1120.568848,239.095123 1124.761963,240.322876 1125.287109,245.911819 
	C1125.783936,251.197372 1123.724976,254.904556 1118.252563,256.895721 
M1119.989014,249.161255 
	C1119.698486,243.073318 1117.152222,241.829895 1108.146484,243.385162 
	C1108.146484,246.602081 1108.146484,249.819000 1108.146484,254.724976 
	C1112.578857,252.904358 1116.163452,251.431992 1119.989014,249.161255 
z"/>
<path fill="#F0EEEE" opacity="1.000000" stroke="none" 
	d="
M933.991211,248.972229 
	C933.811218,254.878860 929.268921,256.295258 923.371460,258.060486 
	C927.852783,261.380890 931.625061,264.175903 935.397339,266.970947 
	C934.979980,267.418152 934.562622,267.865356 934.145325,268.312592 
	C933.803711,269.851593 933.462158,271.390625 932.754578,274.579010 
	C927.310547,268.919281 922.542542,263.962341 917.374817,258.589783 
	C916.845825,264.046417 916.353394,269.125153 915.861023,274.203918 
	C914.996155,274.279175 914.131226,274.354431 913.266357,274.429657 
	C912.696533,272.071167 911.720276,269.725677 911.644287,267.351349 
	C911.500732,262.865326 912.207642,258.241699 907.069031,255.798355 
	C913.204834,249.919312 913.220520,246.083023 906.175598,239.635147 
	C909.290771,239.023788 911.507202,238.234802 913.725769,238.228867 
	C918.024658,238.217361 922.335205,238.530991 926.621399,238.923752 
	C931.401794,239.361771 934.223511,241.909836 934.223328,247.573853 
	C934.033936,248.470093 934.012573,248.721161 933.991211,248.972229 
M926.509399,243.572861 
	C923.353271,243.273590 920.197144,242.974319 917.062012,242.677032 
	C917.062012,246.649048 917.062012,249.741455 917.062012,253.030716 
	C919.412415,253.030716 921.551086,253.238159 923.635620,252.990356 
	C929.061829,252.345322 930.475586,248.712875 926.509399,243.572861 
z"/>
<path fill="#EEEBEB" opacity="1.000000" stroke="none" 
	d="
M1011.013306,316.963135 
	C1010.379883,317.844788 1009.146667,318.771149 1009.208557,319.601013 
	C1009.674561,325.855194 1006.152222,329.619324 1001.220947,332.187683 
	C995.707153,335.059418 990.134460,334.243866 985.301392,330.520142 
	C976.256104,323.551086 977.584595,306.036407 987.440308,300.216614 
	C994.248291,296.196503 1004.676270,299.152435 1007.985413,306.280365 
	C1008.570312,307.540100 1007.816711,309.421234 1007.647339,311.413696 
	C1004.865356,310.963226 1002.794983,311.080566 1001.616272,307.304565 
	C999.937012,301.924957 992.496338,301.222260 988.437744,305.440704 
	C984.106140,309.942902 983.461853,320.408386 987.131226,325.500946 
	C989.742615,329.125244 993.426697,329.750244 997.357483,328.935242 
	C1001.347412,328.108032 1003.249207,325.147644 1004.074463,321.378448 
	C1000.082031,319.492493 995.057373,323.386475 991.958435,318.303833 
	C996.620483,314.250092 1002.093872,316.619171 1007.093018,316.278870 
	C1010.328979,316.058624 1012.201294,315.330017 1012.395874,311.436218 
	C1014.157959,311.716522 1015.496521,312.356018 1016.853271,313.377747 
	C1016.953369,314.471344 1017.035217,315.182770 1016.808655,315.810333 
	C1013.979492,313.069641 1012.583496,315.402863 1011.013306,316.963135 
z"/>
<path fill="#F2F1F1" opacity="1.000000" stroke="none" 
	d="
M853.224487,333.246155 
	C853.024292,332.601074 853.039062,332.233246 853.068359,331.589661 
	C852.998413,321.012695 852.804260,310.709900 852.947266,300.411835 
	C852.968872,298.855743 854.561157,297.321442 855.921204,294.895172 
	C861.591980,304.996155 866.880249,314.415894 872.168518,323.835602 
	C872.462646,323.785187 872.756775,323.734802 873.050903,323.684418 
	C873.050903,316.697571 872.967834,309.709137 873.098450,302.724731 
	C873.141113,300.446289 873.740784,298.178253 874.085754,295.905457 
	C874.871521,295.841949 875.657288,295.778442 876.443054,295.714935 
	C876.945251,297.968475 877.832703,300.213501 877.882751,302.477020 
	C878.095703,312.116943 878.181274,321.764648 877.998413,331.403534 
	C877.967834,333.017029 876.380493,334.600983 874.915833,337.296600 
	C869.273254,327.261536 864.103149,318.066772 858.933044,308.871979 
	C858.605225,308.936798 858.277466,309.001587 857.949646,309.066406 
	C857.949646,315.902557 858.054749,322.741272 857.890076,329.573486 
	C857.835876,331.823700 857.084229,334.057068 856.375488,337.727570 
	C854.715393,335.350403 854.077393,334.436890 853.224487,333.246155 
z"/>
<path fill="#EFEDED" opacity="1.000000" stroke="none" 
	d="
M934.463562,248.950836 
	C934.012573,248.721161 934.033936,248.470093 934.091797,247.840607 
	C937.340759,250.046112 936.323120,245.988174 936.574341,245.493408 
	C940.494446,237.771423 947.867371,234.049515 955.020386,237.267303 
	C958.146545,238.673584 960.807922,241.525589 963.067078,244.232834 
	C963.907471,245.239929 962.996643,247.708389 962.884338,249.510422 
	C962.428040,249.761154 961.971741,250.011887 961.515381,250.262619 
	C960.083679,248.523407 958.414185,246.927414 957.264526,245.018356 
	C953.705322,239.108215 945.690918,239.238190 942.323975,245.600418 
	C939.751587,250.461227 939.081604,255.774521 941.252808,261.013672 
	C943.100769,265.472626 946.548706,267.724945 951.521301,267.133240 
	C956.047363,266.594574 958.588806,264.041504 959.379700,259.419098 
	C955.183228,258.878723 951.251831,258.372498 946.046204,257.702179 
	C951.265259,253.540970 951.265259,253.540970 964.307678,254.398132 
	C966.341431,262.841522 961.055603,270.283875 952.016907,271.703400 
	C943.875061,272.982025 935.688965,266.381104 935.051331,257.889923 
	C934.828064,254.916977 934.963989,251.917038 934.463562,248.950836 
z"/>
<path fill="#F6F5F5" opacity="1.000000" stroke="none" 
	d="
M1131.973633,332.920319 
	C1131.239258,333.982758 1130.504883,335.045197 1129.492188,336.510345 
	C1124.005371,330.821655 1128.927612,323.844513 1126.328979,317.972992 
	C1122.550415,317.972992 1118.590698,317.972992 1114.570923,317.972992 
	C1111.996338,323.661469 1116.915039,330.779968 1110.237427,337.284027 
	C1109.552002,333.762512 1108.699829,331.280792 1108.650024,328.783051 
	C1108.477051,320.120667 1108.493286,311.451233 1108.642456,302.787964 
	C1108.682129,300.484253 1109.454590,298.193146 1110.096436,294.812286 
	C1116.640015,300.679260 1112.428833,307.180908 1114.430908,312.860779 
	C1118.208252,312.860779 1122.283203,312.860779 1126.444214,312.860779 
	C1129.068726,307.612000 1123.739746,300.747528 1130.455811,294.696869 
	C1131.092163,298.182709 1131.907227,300.717621 1131.957031,303.267487 
	C1132.135864,312.429657 1132.056152,321.596863 1132.057495,331.522888 
	C1132.018433,332.495880 1131.995972,332.708099 1131.973633,332.920319 
z"/>
<path fill="#E7E4E4" opacity="1.000000" stroke="none" 
	d="
M1040.966431,315.862000 
	C1041.358887,312.671722 1041.825684,309.488159 1042.114746,306.288544 
	C1042.276489,304.497864 1042.143799,302.680573 1042.143799,300.058777 
	C1050.653198,300.857605 1058.916016,298.669647 1068.192261,301.912384 
	C1061.351807,307.645752 1054.260010,303.070740 1048.064697,305.444427 
	C1048.064697,308.064575 1048.064697,310.820007 1048.064697,314.143616 
	C1051.074707,314.143616 1054.024780,313.999908 1056.953613,314.187744 
	C1059.433350,314.346771 1061.888550,314.889496 1065.605347,315.451569 
	C1059.685425,321.491699 1053.519165,317.341888 1048.135254,319.349945 
	C1048.135254,322.244049 1048.135254,325.338684 1048.135254,328.640198 
	C1054.083008,330.789276 1061.245483,326.683807 1067.970459,331.885101 
	C1059.172241,335.890961 1050.884399,332.607269 1041.886230,334.345001 
	C1041.886230,328.143555 1041.886230,322.736267 1041.437256,317.005249 
	C1040.961060,316.408875 1040.953735,316.135712 1040.966431,315.862000 
z"/>
<path fill="#E7E4E4" opacity="1.000000" stroke="none" 
	d="
M1203.662476,300.143951 
	C1207.108521,300.467285 1210.099731,300.790588 1213.090820,301.113922 
	C1213.081909,302.089478 1213.073120,303.065002 1213.064209,304.040558 
	C1210.128784,304.312378 1207.198120,304.702271 1204.256348,304.824646 
	C1200.964844,304.961548 1197.663330,304.856049 1194.113770,304.856049 
	C1194.113770,307.962982 1194.113770,310.719849 1194.113770,313.714844 
	C1199.219238,315.578217 1205.382690,311.820312 1210.472656,316.482910 
	C1205.725220,321.702026 1199.529785,317.184570 1194.174072,319.424225 
	C1194.174072,322.288422 1194.174072,325.497162 1194.174072,328.632629 
	C1200.303833,330.793335 1207.280396,326.529846 1213.961060,331.990692 
	C1205.159912,335.489471 1196.939453,332.982788 1188.143677,334.100128 
	C1188.143677,328.201141 1188.143677,322.784088 1188.143677,317.367035 
	C1188.143677,311.887482 1188.143677,306.407928 1188.143677,300.143951 
	C1193.358887,300.143951 1198.283203,300.143951 1203.662476,300.143951 
z"/>
<path fill="#F1EFEF" opacity="1.000000" stroke="none" 
	d="
M1007.968506,254.772217 
	C1007.944763,249.144363 1007.731018,243.977158 1008.001892,238.835464 
	C1008.095032,237.067139 1009.397827,235.362518 1010.148010,233.628799 
	C1010.719238,233.638123 1011.290466,233.647446 1011.861694,233.656754 
	C1012.387207,236.059219 1013.318665,238.454910 1013.358826,240.865448 
	C1013.461182,247.007629 1013.266968,253.160828 1013.002808,259.301483 
	C1012.682739,266.740265 1008.243774,271.444519 1001.447266,271.822235 
	C994.627380,272.201233 989.681885,268.051056 988.953308,260.454773 
	C988.257080,253.196136 988.156433,245.865860 988.150696,238.566803 
	C988.149414,236.962189 989.653442,235.356384 990.464233,233.751144 
	C991.039001,233.723572 991.613831,233.696014 992.188599,233.668457 
	C992.734375,236.171204 993.640991,238.658081 993.751831,241.179932 
	C993.992676,246.660355 993.770203,252.159363 993.842896,257.649384 
	C993.929810,264.216949 996.117615,267.156494 1000.755371,267.167297 
	C1005.239563,267.177734 1007.663879,264.014496 1007.962524,257.738434 
	C1008.002014,256.908386 1007.968323,256.074799 1007.968506,254.772217 
z"/>
<path fill="#EFEDED" opacity="1.000000" stroke="none" 
	d="
M887.106201,238.978714 
	C888.220520,238.622879 889.460327,238.470749 890.427002,237.875259 
	C894.250366,235.520203 897.969055,235.722733 901.597351,238.148132 
	C904.725159,240.238922 906.866211,242.839844 904.994263,248.373749 
	C903.030640,246.387650 901.734619,244.758972 900.126343,243.543427 
	C898.648926,242.426773 896.694275,240.890762 895.209595,241.132812 
	C893.751892,241.370483 891.858215,243.470779 891.567078,245.019058 
	C891.290222,246.491486 892.437927,248.764755 893.685303,249.855164 
	C895.225159,251.201218 897.504822,251.713791 899.483215,252.542679 
	C903.778809,254.342438 906.863708,257.167969 906.782288,262.150604 
	C906.713501,266.357574 904.453918,269.387360 900.563904,270.912018 
	C895.807129,272.776398 891.230408,271.963776 887.708801,268.350525 
	C885.753967,266.344818 884.721008,263.440613 882.687683,259.932098 
	C887.341370,259.828979 889.063232,260.409729 890.420532,263.644897 
	C891.174866,265.442871 894.850647,266.628052 897.316040,266.837402 
	C898.552612,266.942413 901.256531,264.105103 901.112610,262.848755 
	C900.883545,260.849854 898.940613,258.965668 897.487793,257.229431 
	C896.919861,256.550781 895.713501,256.411407 894.803894,256.012787 
	C885.573364,251.967407 884.244873,248.687927 887.608521,239.162506 
	C887.146851,238.924408 887.106201,238.978714 887.106201,238.978714 
z"/>
<path fill="#F0EEEE" opacity="1.000000" stroke="none" 
	d="
M887.175415,238.906006 
	C886.210999,239.721420 884.680176,240.365662 884.309082,241.418610 
	C880.939209,250.980576 877.888977,260.656555 874.422485,270.181732 
	C873.882324,271.665985 871.713440,272.557465 870.407532,273.632660 
	C869.323303,272.780640 867.068909,271.919342 866.510193,270.424286 
	C862.493286,259.676910 858.744080,248.825989 855.169861,237.922729 
	C854.850159,236.947525 856.373718,235.368088 857.783020,232.626022 
	C859.362183,235.445740 860.790466,237.369064 861.584717,239.525894 
	C864.554932,247.591339 867.317566,255.733200 870.561157,264.997711 
	C871.685913,262.067596 872.516479,260.104828 873.198059,258.091644 
	C875.525391,251.217514 877.683167,244.282593 880.185242,237.473663 
	C880.744751,235.951065 882.442078,234.846619 883.738586,233.413788 
	C884.910706,235.478226 885.767456,236.987244 886.865234,238.737488 
	C887.106201,238.978714 887.146851,238.924408 887.175415,238.906006 
z"/>
<path fill="#F1EFEF" opacity="1.000000" stroke="none" 
	d="
M1082.010498,333.201355 
	C1072.630127,334.742706 1066.010376,329.441986 1067.664551,320.350677 
	C1069.713257,322.571411 1070.926025,324.499725 1072.661255,325.615601 
	C1074.965820,327.097626 1077.607300,328.445282 1080.249878,328.818939 
	C1081.296509,328.966888 1084.006104,325.978851 1083.740601,325.058197 
	C1083.106201,322.858124 1081.489014,320.608582 1079.649170,319.173218 
	C1077.353271,317.382111 1074.249756,316.657135 1071.829712,314.987000 
	C1068.143311,312.442932 1067.852783,308.532440 1069.213135,304.705261 
	C1070.673584,300.596436 1074.121704,297.536682 1078.281372,298.448242 
	C1081.955688,299.253448 1085.238892,302.213196 1088.407227,304.602905 
	C1088.951050,305.013153 1088.055298,307.332245 1087.563232,310.397034 
	C1085.532349,308.302612 1084.260864,306.638702 1082.647583,305.431183 
	C1081.166016,304.322144 1079.271240,302.995117 1077.643188,303.098480 
	C1076.372803,303.179138 1074.470093,305.175751 1074.233276,306.558167 
	C1073.957886,308.165955 1074.688965,310.617950 1075.889282,311.649445 
	C1077.695068,313.201263 1080.279541,313.855408 1082.547241,314.859161 
	C1086.666016,316.682220 1089.303589,319.390381 1089.076660,324.328857 
	C1088.865601,328.918915 1086.665039,331.722656 1082.010498,333.201355 
z"/>
<path fill="#F1EFEF" opacity="1.000000" stroke="none" 
	d="
M1129.129639,263.228973 
	C1130.642334,263.948853 1133.123657,264.989380 1133.142578,266.072998 
	C1133.202637,269.504791 1134.737671,271.306763 1137.796021,271.003357 
	C1139.573120,270.827057 1142.076904,269.426178 1142.694458,267.931946 
	C1143.888794,265.042267 1143.093384,262.092834 1139.995728,260.209473 
	C1138.837402,259.505157 1137.971313,258.320312 1136.971924,257.354553 
	C1138.077759,256.495697 1139.464478,255.830887 1140.223022,254.732285 
	C1141.347046,253.104416 1142.959473,250.965393 1142.623169,249.423477 
	C1142.306641,247.971695 1139.761353,246.141373 1138.149414,246.094345 
	C1136.712646,246.052429 1134.990479,248.039261 1133.805420,249.471161 
	C1132.771240,250.720795 1132.310181,252.444870 1131.330444,254.522125 
	C1129.933716,252.943146 1128.928101,251.806259 1127.766846,250.493439 
	C1128.998901,245.302658 1131.737549,241.362656 1137.815918,241.228455 
	C1141.834595,241.139740 1145.550171,242.371353 1147.299561,246.383118 
	C1149.068604,250.440094 1148.276489,254.186005 1144.691040,257.028198 
	C1149.069214,262.700195 1149.631836,267.996277 1146.374512,271.996765 
	C1143.324341,275.742798 1138.032227,276.862488 1133.195068,274.785156 
	C1128.462402,272.752747 1126.240479,266.852386 1129.129639,263.228973 
z"/>
<path fill="#F2F1F1" opacity="1.000000" stroke="none" 
	d="
M1074.994141,254.983246 
	C1074.648682,256.410583 1074.243774,257.826477 1073.968018,259.267151 
	C1072.566406,266.593048 1067.010742,271.648865 1060.131592,271.815552 
	C1053.535156,271.975372 1047.869751,267.306427 1046.059204,260.190125 
	C1045.693970,258.754883 1045.413086,257.298187 1045.054443,255.261627 
	C1045.040771,254.405716 1045.074097,254.140579 1045.115601,253.876480 
	C1045.264282,253.753586 1045.412842,253.630692 1046.027832,253.187561 
	C1048.023315,253.225327 1049.552246,253.583344 1051.065186,253.963852 
	C1051.049438,253.986343 1051.039795,253.932953 1051.025391,254.208298 
	C1051.011841,254.667465 1051.012573,254.851273 1050.951416,255.439514 
	C1051.265503,263.907135 1055.723022,268.448334 1061.890747,267.051605 
	C1065.982300,266.125031 1068.487915,261.897552 1068.934570,254.867523 
	C1068.943359,254.322433 1068.936157,254.104324 1068.917969,253.911743 
	C1068.906982,253.937271 1068.878906,253.888885 1069.194824,253.811996 
	C1071.365845,253.807831 1073.221069,253.880554 1075.076294,253.953262 
	C1075.076294,253.953262 1075.036621,254.006241 1075.018799,254.233704 
	C1074.998535,254.635208 1074.996338,254.809219 1074.994141,254.983246 
z"/>
<path fill="#F2F1F1" opacity="1.000000" stroke="none" 
	d="
M1040.705566,315.687103 
	C1040.953735,316.135712 1040.961060,316.408875 1041.012085,316.885162 
	C1040.690063,318.698822 1040.366333,320.313934 1039.994385,321.917847 
	C1038.331543,329.086914 1032.904419,333.758789 1026.192383,333.816895 
	C1019.677795,333.873291 1013.923523,329.037750 1012.179993,322.014069 
	C1011.826050,320.588318 1011.555237,319.141907 1011.129700,317.334076 
	C1012.583496,315.402863 1013.979492,313.069641 1016.794556,315.833588 
	C1017.088867,315.940674 1017.066895,315.891296 1017.054932,316.208801 
	C1017.050720,316.737976 1017.058533,316.949646 1017.033813,317.555176 
	C1017.629639,325.728455 1021.366333,329.813843 1027.231445,329.133545 
	C1032.086548,328.570404 1034.965576,324.082428 1034.981934,316.777954 
	C1034.978760,316.311340 1034.971558,316.124756 1034.959229,315.970947 
	C1034.954224,316.003693 1034.915649,315.949738 1035.240967,315.930542 
	C1036.645752,315.296600 1037.725342,314.681854 1038.904785,314.241211 
	C1039.324341,314.646240 1039.644165,314.877197 1039.963989,315.108154 
	C1040.124390,315.242828 1040.284668,315.377533 1040.705566,315.687103 
z"/>
<path fill="#ECE9E9" opacity="1.000000" stroke="none" 
	d="
M1074.768066,253.667725 
	C1073.221069,253.880554 1071.365845,253.807831 1069.345093,253.437134 
	C1068.822998,251.357468 1068.610229,249.532043 1068.083374,247.802170 
	C1066.403809,242.285934 1062.613159,239.858810 1057.658325,240.983231 
	C1053.308716,241.970291 1050.707031,247.095917 1051.081055,253.941345 
	C1049.552246,253.583344 1048.023315,253.225327 1046.239014,252.989929 
	C1044.513916,245.196457 1050.081543,237.524948 1058.218506,236.254059 
	C1065.420532,235.129196 1072.877563,241.164490 1073.974365,249.025085 
	C1074.176270,250.471863 1074.300049,251.929535 1074.768066,253.667725 
z"/>
<path fill="#F2F1F1" opacity="1.000000" stroke="none" 
	d="
M1016.835083,312.995514 
	C1015.496521,312.356018 1014.157959,311.716522 1012.502625,311.036469 
	C1014.211731,302.590790 1019.097778,298.123444 1026.201538,298.181152 
	C1033.281494,298.238678 1038.228882,302.852692 1039.862061,311.604034 
	C1039.387451,312.023956 1039.210938,312.039154 1038.648193,312.037903 
	C1037.233521,312.012543 1036.205444,312.003571 1035.061401,311.645508 
	C1032.332275,304.013062 1028.442505,301.191620 1023.254150,303.135254 
	C1018.814453,304.798370 1017.937195,309.027496 1016.835083,312.995514 
z"/>
<path fill="#E7E4E4" opacity="1.000000" stroke="none" 
	d="
M1085.286499,262.855988 
	C1083.626709,262.193359 1082.406860,261.530792 1081.187134,260.868225 
	C1082.331299,260.293640 1083.428589,259.391785 1084.630493,259.219116 
	C1086.562256,258.941620 1088.615234,258.879517 1090.514771,259.250610 
	C1091.586792,259.460083 1092.453979,260.717743 1093.413574,261.503235 
	C1093.124878,261.954163 1092.836304,262.405121 1092.547607,262.856049 
	C1090.273926,262.856049 1088.000244,262.856049 1085.286499,262.855988 
z"/>
<path fill="#E7E4E4" opacity="1.000000" stroke="none" 
	d="
M973.306396,259.144623 
	C975.902283,259.153473 978.060364,259.023621 980.178772,259.256012 
	C980.824768,259.326874 981.820984,260.396362 981.818787,261.005554 
	C981.816650,261.615112 980.807373,262.689728 980.168640,262.745300 
	C977.713867,262.958801 975.212463,263.020447 972.767151,262.766296 
	C971.809692,262.666779 970.954224,261.585419 970.052246,260.951233 
	C970.985901,260.349213 971.919617,259.747192 973.306396,259.144623 
z"/>
<path fill="#E7E4E4" opacity="1.000000" stroke="none" 
	d="
M1039.034546,312.054321 
	C1039.210938,312.039154 1039.387451,312.023956 1039.828857,311.991486 
	C1040.111084,312.793823 1040.128174,313.613434 1040.054688,314.770630 
	C1039.644165,314.877197 1039.324341,314.646240 1038.955200,313.906006 
	C1038.948730,312.949249 1038.991699,312.501801 1039.034546,312.054321 
z"/>
<path fill="#ECE9E9" opacity="1.000000" stroke="none" 
	d="
M1044.953369,253.752930 
	C1045.074097,254.140579 1045.040771,254.405716 1044.994385,254.871246 
	C1044.673096,254.758881 1044.372925,254.447189 1044.072754,254.135468 
	C1044.312256,253.966766 1044.551758,253.798080 1044.953369,253.752930 
z"/>
<path fill="#ECE9E9" opacity="1.000000" stroke="none" 
	d="
M1075.247314,254.907318 
	C1074.996338,254.809219 1074.998535,254.635208 1075.018188,254.200638 
	C1075.190552,254.237183 1075.345581,254.534286 1075.247314,254.907318 
z"/>
<path fill="#ECE9E9" opacity="1.000000" stroke="none" 
	d="
M1132.294434,332.907837 
	C1131.995972,332.708099 1132.018433,332.495880 1132.096436,331.968414 
	C1132.306396,332.067230 1132.460815,332.481262 1132.294434,332.907837 
z"/>
<path fill="#200505" opacity="1.000000" stroke="none" 
	d="
M805.929199,328.182281 
	C804.002747,328.182739 802.528381,328.182739 800.740356,328.182739 
	C800.740356,324.690186 800.740356,321.489258 800.740356,318.301727 
	C810.288208,316.868286 814.267761,318.103729 814.388733,322.686005 
	C814.539673,328.407532 810.137939,327.921570 805.929199,328.182281 
z"/>
<path fill="#200505" opacity="1.000000" stroke="none" 
	d="
M812.065857,309.740356 
	C809.294067,314.984222 804.801941,312.563660 800.699036,313.188904 
	C800.699036,310.322540 800.699036,307.780365 800.699036,305.264191 
	C809.714417,304.045624 811.297546,304.622467 812.065857,309.740356 
z"/>
<path fill="#200505" opacity="1.000000" stroke="none" 
	d="
M830.879639,314.889771 
	C832.084167,311.440948 833.200806,308.379669 834.516174,304.773621 
	C836.385071,310.159546 838.051147,314.960999 839.807373,320.022034 
	C836.130249,320.022034 832.831726,320.022034 829.127075,320.022034 
	C829.734680,318.290009 830.263184,316.783661 830.879639,314.889771 
z"/>
<path fill="#1C0000" opacity="1.000000" stroke="none" 
	d="
M819.721924,330.249786 
	C819.766052,330.625397 819.572510,330.754089 819.378967,330.882812 
	C819.414062,330.589508 819.449158,330.296173 819.721924,330.249786 
z"/>
<path fill="#1E0202" opacity="1.000000" stroke="none" 
	d="
M1177.314209,305.075745 
	C1178.825684,307.109070 1181.100098,309.403137 1180.669556,310.938599 
	C1180.186401,312.661072 1177.417725,314.126465 1175.343750,314.900146 
	C1173.611816,315.546234 1171.447388,315.032715 1169.155396,315.032715 
	C1169.155396,311.805023 1169.155396,308.598724 1169.155396,305.001740 
	C1171.721313,305.001740 1174.302368,305.001740 1177.314209,305.075745 
z"/>
<path fill="#1E0202" opacity="1.000000" stroke="none" 
	d="
M952.958923,314.413483 
	C949.836182,314.849579 947.087708,315.077972 943.829895,315.348694 
	C943.829895,313.225128 943.829834,311.616852 943.829834,310.008575 
	C943.829834,308.402008 943.829895,306.795441 943.829895,303.552979 
	C948.366516,305.062531 952.554077,305.556885 955.461914,307.748779 
	C957.310364,309.142120 956.327637,312.734894 952.958923,314.413483 
z"/>
<path fill="#1E0202" opacity="1.000000" stroke="none" 
	d="
M1119.868530,249.560440 
	C1116.163452,251.431992 1112.578857,252.904358 1108.146484,254.724976 
	C1108.146484,249.819000 1108.146484,246.602081 1108.144043,243.380371 
	C1117.152222,241.829895 1119.698486,243.073318 1119.868530,249.560440 
z"/>
<path fill="#1E0202" opacity="1.000000" stroke="none" 
	d="
M926.897156,243.753021 
	C930.475586,248.712875 929.061829,252.345322 923.635620,252.990356 
	C921.551086,253.238159 919.412415,253.030716 917.062012,253.030716 
	C917.062012,249.741455 917.062012,246.649048 917.062012,242.677032 
	C920.197144,242.974319 923.353271,243.273590 926.897156,243.753021 
z"/>
<path fill="#200505" opacity="1.000000" stroke="none" 
	d="
M1016.853271,313.377747 
	C1017.937195,309.027496 1018.814453,304.798370 1023.254150,303.135254 
	C1028.442505,301.191620 1032.332275,304.013062 1035.005493,312.044128 
	C1035.015503,313.844482 1034.965576,314.897125 1034.915527,315.949738 
	C1034.915649,315.949738 1034.954224,316.003693 1034.687988,315.951172 
	C1034.607178,316.285095 1034.792603,316.671570 1034.978149,317.058014 
	C1034.965576,324.082428 1032.086548,328.570404 1027.231445,329.133545 
	C1021.366333,329.813843 1017.629639,325.728455 1017.323975,317.434692 
	C1017.453369,316.577332 1017.260132,316.234314 1017.066895,315.891296 
	C1017.066895,315.891296 1017.088867,315.940674 1017.103027,315.917419 
	C1017.035217,315.182770 1016.953369,314.471344 1016.853271,313.377747 
z"/>
<path fill="#200505" opacity="1.000000" stroke="none" 
	d="
M1051.065186,253.963837 
	C1050.707031,247.095917 1053.308716,241.970291 1057.658325,240.983231 
	C1062.613159,239.858810 1066.403809,242.285934 1068.083374,247.802170 
	C1068.610229,249.532043 1068.822998,251.357468 1069.029297,253.514023 
	C1068.878906,253.888885 1068.906982,253.937271 1068.612061,253.902802 
	C1068.517578,254.310379 1068.718018,254.752441 1068.918457,255.194519 
	C1068.487915,261.897552 1065.982300,266.125031 1061.890747,267.051605 
	C1055.723022,268.448334 1051.265503,263.907135 1051.212158,255.342972 
	C1051.369751,254.538986 1051.204834,254.235977 1051.039795,253.932953 
	C1051.039795,253.932953 1051.049438,253.986343 1051.065186,253.963837 
z"/>
<path fill="#ECE9E9" opacity="1.000000" stroke="none" 
	d="
M1068.934570,254.867538 
	C1068.718018,254.752441 1068.517578,254.310379 1068.623047,253.877258 
	C1068.936157,254.104324 1068.943359,254.322433 1068.934570,254.867538 
z"/>
<path fill="#ECE9E9" opacity="1.000000" stroke="none" 
	d="
M1051.025391,254.208298 
	C1051.204834,254.235977 1051.369751,254.538986 1051.274048,254.938538 
	C1051.012573,254.851273 1051.011841,254.667465 1051.025391,254.208298 
z"/>
<path fill="#EEEBEB" opacity="1.000000" stroke="none" 
	d="
M1035.240845,315.930542 
	C1034.965576,314.897125 1035.015503,313.844482 1035.121338,312.393250 
	C1036.205444,312.003571 1037.233521,312.012543 1038.648193,312.037903 
	C1038.991699,312.501801 1038.948730,312.949249 1038.855469,313.731934 
	C1037.725342,314.681854 1036.645752,315.296600 1035.240845,315.930542 
z"/>
<path fill="#EEEBEB" opacity="1.000000" stroke="none" 
	d="
M1017.054932,316.208801 
	C1017.260132,316.234314 1017.453369,316.577332 1017.356445,317.040833 
	C1017.058533,316.949646 1017.050720,316.737976 1017.054932,316.208801 
z"/>
<path fill="#EEEBEB" opacity="1.000000" stroke="none" 
	d="
M1034.981934,316.777954 
	C1034.792603,316.671570 1034.607178,316.285095 1034.692871,315.918396 
	C1034.971558,316.124756 1034.978760,316.311340 1034.981934,316.777954 
z"/>
</svg>